<?xml version="1.0" encoding="utf-8"?>
<!-- Generator: Adobe Illustrator 23.1.0, SVG Export Plug-In . SVG Version: 6.00 Build 0)  -->
<svg version="1.1" id="Capa_1" xmlns="http://www.w3.org/2000/svg" xmlns:xlink="http://www.w3.org/1999/xlink" x="0px" y="0px"
	 viewBox="0 0 200 200" style="enable-background:new 0 0 200 200;" xml:space="preserve">
<title>fb</title>
<path d="M100,0L100,0C44.8,0,0,44.8,0,100l0,0c0,55.2,44.8,100,100,100l0,0c55.2,0,100-44.8,100-100l0,0C200,44.8,155.2,0,100,0z
	 M127.9,60.7h-13.2c-4.7,0-5.6,1.9-5.6,6.7v11.6h18.8l-1.8,20.4h-17v61H84.8V99.7H72.1V79.1h12.7V62.8c0-15.3,8.2-23.2,26.3-23.2
	h16.9V60.7z"/>
</svg>
