<?xml version="1.0" encoding="utf-8"?>
<!-- Generator: Adobe Illustrator 23.1.0, SVG Export Plug-In . SVG Version: 6.00 Build 0)  -->
<svg version="1.1" id="Capa_1" xmlns="http://www.w3.org/2000/svg" xmlns:xlink="http://www.w3.org/1999/xlink" x="0px" y="0px"
	 viewBox="0 0 200 200" style="enable-background:new 0 0 200 200;" xml:space="preserve">
<title>ig</title>
<path d="M142.7,67.7c-1.8-4.8-5.6-8.6-10.4-10.4c-3.3-1.2-6.7-1.8-10.2-1.9c-5.8-0.3-7.5-0.3-22.2-0.3s-16.4,0-22.2,0.3
	c-3.5,0-6.9,0.7-10.2,1.9c-4.8,1.8-8.6,5.6-10.4,10.4c-1.2,3.3-1.8,6.7-1.9,10.2c-0.3,5.8-0.3,7.5-0.3,22.2s0.1,16.4,0.3,22.2
	c0,3.5,0.7,6.9,1.9,10.2c1.8,4.8,5.6,8.6,10.4,10.4c3.3,1.2,6.7,1.9,10.2,1.9c5.8,0.3,7.5,0.3,22.2,0.3s16.4,0,22.2-0.3
	c3.5,0,6.9-0.7,10.2-1.9c4.8-1.8,8.6-5.6,10.4-10.4c1.2-3.3,1.8-6.7,1.9-10.2c0.3-5.8,0.3-7.5,0.3-22.2s-0.1-16.4-0.3-22.2
	C144.6,74.4,143.9,70.9,142.7,67.7z M100,128.2c-15.6,0-28.2-12.6-28.2-28.2S84.4,71.8,100,71.8s28.2,12.6,28.2,28.2
	S115.6,128.2,100,128.2L100,128.2z M129.3,77.3c-3.6,0-6.6-2.9-6.6-6.6c0-3.6,2.9-6.6,6.6-6.6c3.6,0,6.6,2.9,6.6,6.6
	S132.9,77.3,129.3,77.3z"/>
<circle cx="100" cy="100" r="18.3"/>
<path d="M100,0C44.8,0,0,44.8,0,100l0,0c0,55.2,44.8,100,100,100s100-44.8,100-100l0,0C200,44.8,155.2,0,100,0z M154.5,122.6
	c-0.1,4.5-0.9,9-2.5,13.3c-2.8,7.3-8.7,13.2-16,16c-4.3,1.6-8.8,2.5-13.3,2.6c-5.8,0.3-7.7,0.3-22.6,0.3s-16.8-0.1-22.6-0.3
	c-4.6-0.1-9.1-0.9-13.4-2.5c-7.3-2.8-13.2-8.7-16-16c-1.6-4.3-2.5-8.8-2.5-13.3c-0.3-5.8-0.3-7.7-0.3-22.6s0.1-16.8,0.3-22.6
	c0.1-4.5,1-9,2.5-13.3c2.8-7.3,8.7-13.2,16-16c4.3-1.6,8.8-2.5,13.3-2.7c5.8-0.3,7.7-0.3,22.6-0.3s16.8,0.1,22.6,0.3
	c4.5,0.1,9,1,13.3,2.5c7.3,2.8,13.2,8.7,16,16c1.6,4.3,2.5,8.8,2.6,13.3c0.3,5.8,0.3,7.7,0.3,22.6S154.8,116.8,154.5,122.6z"/>
</svg>
