<?xml version="1.0" encoding="utf-8"?>
<!-- Generator: Adobe Illustrator 23.1.0, SVG Export Plug-In . SVG Version: 6.00 Build 0)  -->
<svg version="1.1" id="Capa_1" xmlns="http://www.w3.org/2000/svg" xmlns:xlink="http://www.w3.org/1999/xlink" x="0px" y="0px"
	 viewBox="0 0 200 200" style="enable-background:new 0 0 200 200;" xml:space="preserve">
<title>tw</title>
<path d="M100,0C44.8,0,0,44.8,0,100l0,0c0,55.2,44.8,100,100,100s100-44.8,100-100l0,0C200,44.8,155.2,0,100,0z M142.4,78.3
	c1.4,30.8-21.6,65-62.1,65c-11.9,0-23.5-3.4-33.5-9.8c11.6,1.4,23.2-1.9,32.4-9.1c-9.4-0.2-17.6-6.3-20.4-15.2
	c3.3,0.6,6.6,0.5,9.9-0.4C58.2,106.7,50.9,97.6,51,87.2c3,1.7,6.4,2.6,9.9,2.7c-9.6-6.4-12.6-19.2-6.8-29.2
	c11.1,13.7,27.5,22,45.1,22.8c-2.7-11.8,4.6-23.5,16.3-26.3c7.6-1.8,15.6,0.6,20.9,6.3c4.9-1,9.6-2.8,13.9-5.3
	c-1.6,5.1-5,9.4-9.6,12.1c4.3-0.5,8.6-1.6,12.6-3.4C150.3,71.4,146.6,75.2,142.4,78.3z"/>
</svg>
