<?xml version="1.0" encoding="utf-8"?>
<!-- Generator: Adobe Illustrator 23.1.0, SVG Export Plug-In . SVG Version: 6.00 Build 0)  -->
<svg version="1.1" id="Capa_1" xmlns="http://www.w3.org/2000/svg" xmlns:xlink="http://www.w3.org/1999/xlink" x="0px" y="0px"
	 viewBox="0 0 200 200" style="enable-background:new 0 0 200 200;" xml:space="preserve">
<title>yt</title>
<path d="M100,0L100,0C44.8,0,0,44.8,0,100l0,0c0,55.2,44.8,100,100,100l0,0c55.2,0,100-44.8,100-100l0,0C200,44.8,155.2,0,100,0z
	 M164.3,132.5c-1.5,5.8-6.1,10.4-11.9,11.9c-10.5,2.8-52.5,2.8-52.5,2.8s-42,0-52.5-2.8c-5.8-1.6-10.3-6.1-11.9-11.9
	C32.9,122,32.9,100,32.9,100s0-22,2.8-32.5c1.5-5.8,6-10.4,11.9-12C58,52.7,100,52.7,100,52.7s42,0,52.4,2.8
	c5.8,1.6,10.3,6.2,11.9,12c2.8,10.5,2.8,32.5,2.8,32.5S167.1,122,164.3,132.5z"/>
<polygon points="86.3,120 121.4,100 86.3,80 "/>
</svg>
